<svg width="528" height="279" viewBox="0 0 528 279" fill="none" xmlns="http://www.w3.org/2000/svg">
<rect width="528" height="279" fill="#25282C"/>
<mask id="mask0_0_312" style="mask-type:alpha" maskUnits="userSpaceOnUse" x="0" y="0" width="528" height="279">
<rect width="528" height="279" fill="white"/>
</mask>
<g mask="url(#mask0_0_312)">
<path fill-rule="evenodd" clip-rule="evenodd" d="M16.5 20C16.2239 20 16 20.2239 16 20.5C16 20.7761 16.2239 21 16.5 21H523.5C523.776 21 524 20.7761 524 20.5C524 20.2239 523.776 20 523.5 20H16.5ZM16 53.5C16 53.2239 16.2239 53 16.5 53H523.5C523.776 53 524 53.2239 524 53.5C524 53.7761 523.776 54 523.5 54H16.5C16.2239 54 16 53.7761 16 53.5ZM16.5 86C16.2239 86 16 86.2239 16 86.5C16 86.7761 16.2239 87 16.5 87H523.5C523.776 87 524 86.7761 524 86.5C524 86.2239 523.776 86 523.5 86H16.5ZM16.5 119C16.2239 119 16 119.224 16 119.5C16 119.776 16.2239 120 16.5 120H523.5C523.776 120 524 119.776 524 119.5C524 119.224 523.776 119 523.5 119H16.5ZM16.5 152C16.2239 152 16 152.224 16 152.5C16 152.776 16.2239 153 16.5 153H523.5C523.776 153 524 152.776 524 152.5C524 152.224 523.776 152 523.5 152H16.5ZM16 185.5C16 185.224 16.2239 185 16.5 185H523.5C523.776 185 524 185.224 524 185.5C524 185.776 523.776 186 523.5 186H16.5C16.2239 186 16 185.776 16 185.5ZM16.5 218C16.2239 218 16 218.224 16 218.5C16 218.776 16.2239 219 16.5 219H523.5C523.776 219 524 218.776 524 218.5C524 218.224 523.776 218 523.5 218H16.5ZM16 251.5C16 251.224 16.2239 251 16.5 251H523.5C523.776 251 524 251.224 524 251.5C524 251.776 523.776 252 523.5 252H16.5C16.2239 252 16 251.776 16 251.5Z" fill="#717D86" fill-opacity="0.12"/>
<path opacity="0.8" d="M52 45H33V109H119" stroke="#55595F" stroke-width="2"/>
<path opacity="0.8" d="M208 173H189V236H275" stroke="#55595F" stroke-width="2"/>
<path opacity="0.8" d="M449 109H468V173H407" stroke="#55595F" stroke-width="2"/>
<path opacity="0.8" d="M268 109H302" stroke="#55595F" stroke-width="2"/>
</g>
<g clip-path="url(#clip0_0_312)">
<g filter="url(#filter0_d_0_312)">
<rect x="51" y="20" width="200" height="48" rx="2" fill="#272A2D"/>
<rect x="51.5" y="20.5" width="199" height="47" rx="1.5" stroke="#33363A"/>
</g>
<path opacity="0.8" d="M108.979 49H107.348L111.012 38.8182H112.787L116.451 49H114.82L111.942 40.6676H111.862L108.979 49ZM109.252 45.0128H114.542V46.3054H109.252V45.0128ZM119.289 38.8182V49H117.802V38.8182H119.289ZM121.288 49V41.3636H122.775V49H121.288ZM122.039 40.1854C121.781 40.1854 121.558 40.0992 121.373 39.9268C121.191 39.7512 121.099 39.5424 121.099 39.3004C121.099 39.0552 121.191 38.8464 121.373 38.674C121.558 38.4983 121.781 38.4105 122.039 38.4105C122.298 38.4105 122.518 38.4983 122.7 38.674C122.886 38.8464 122.979 39.0552 122.979 39.3004C122.979 39.5424 122.886 39.7512 122.7 39.9268C122.518 40.0992 122.298 40.1854 122.039 40.1854ZM129.93 51.8636V47.8118H129.841C129.751 47.9742 129.622 48.1598 129.453 48.3686C129.287 48.5774 129.059 48.7597 128.767 48.9155C128.475 49.0713 128.097 49.1491 127.633 49.1491C127.017 49.1491 126.467 48.9917 125.983 48.6768C125.502 48.3587 125.124 47.9062 124.849 47.3196C124.577 46.7296 124.442 46.022 124.442 45.1967C124.442 44.3714 124.579 43.6655 124.854 43.0788C125.133 42.4922 125.514 42.0431 125.998 41.7315C126.482 41.42 127.03 41.2642 127.643 41.2642C128.117 41.2642 128.498 41.3438 128.787 41.5028C129.078 41.6586 129.304 41.8409 129.463 42.0497C129.625 42.2585 129.751 42.4425 129.841 42.6016H129.965V41.3636H131.417V51.8636H129.93ZM127.961 47.8814C128.389 47.8814 128.75 47.7687 129.045 47.5433C129.344 47.3146 129.569 46.9981 129.721 46.5938C129.877 46.1894 129.955 45.7187 129.955 45.1818C129.955 44.6515 129.879 44.1875 129.726 43.7898C129.574 43.392 129.35 43.0821 129.055 42.8601C128.76 42.638 128.396 42.527 127.961 42.527C127.514 42.527 127.141 42.643 126.843 42.875C126.545 43.107 126.319 43.4235 126.167 43.8246C126.018 44.2256 125.943 44.678 125.943 45.1818C125.943 45.6922 126.019 46.1513 126.172 46.5589C126.324 46.9666 126.55 47.2898 126.848 47.5284C127.149 47.7637 127.521 47.8814 127.961 47.8814ZM138.253 45.8331V41.3636H139.744V49H138.282V47.6776H138.203C138.027 48.0852 137.746 48.425 137.358 48.6967C136.973 48.9652 136.494 49.0994 135.921 49.0994C135.43 49.0994 134.996 48.9917 134.618 48.7763C134.244 48.5575 133.949 48.2344 133.733 47.8068C133.521 47.3793 133.415 46.8506 133.415 46.2209V41.3636H134.902V46.0419C134.902 46.5623 135.046 46.9766 135.334 47.2848C135.623 47.593 135.997 47.7472 136.458 47.7472C136.736 47.7472 137.013 47.6776 137.288 47.5384C137.567 47.3991 137.797 47.1887 137.979 46.907C138.165 46.6252 138.256 46.2673 138.253 45.8331ZM143.964 49.169C143.48 49.169 143.042 49.0795 142.651 48.9006C142.26 48.7183 141.95 48.4548 141.722 48.1101C141.496 47.7654 141.384 47.3428 141.384 46.8423C141.384 46.4115 141.466 46.0568 141.632 45.7784C141.798 45.5 142.022 45.2796 142.303 45.1172C142.585 44.9548 142.9 44.8321 143.248 44.7493C143.596 44.6664 143.951 44.6035 144.312 44.5604C144.769 44.5073 145.14 44.4643 145.425 44.4311C145.71 44.3946 145.918 44.3366 146.047 44.2571C146.176 44.1776 146.241 44.0483 146.241 43.8693V43.8345C146.241 43.4003 146.118 43.0639 145.873 42.8253C145.631 42.5866 145.27 42.4673 144.789 42.4673C144.289 42.4673 143.894 42.5784 143.606 42.8004C143.321 43.0192 143.124 43.2628 143.014 43.5312L141.617 43.2131C141.783 42.7491 142.025 42.3745 142.343 42.0895C142.665 41.8011 143.034 41.5923 143.452 41.4631C143.869 41.3305 144.308 41.2642 144.769 41.2642C145.074 41.2642 145.397 41.3007 145.739 41.3736C146.083 41.4432 146.405 41.5724 146.703 41.7614C147.005 41.9503 147.252 42.2204 147.444 42.5717C147.636 42.9197 147.732 43.3722 147.732 43.929V49H146.281V47.956H146.221C146.125 48.1482 145.981 48.3371 145.788 48.5227C145.596 48.7083 145.349 48.8625 145.048 48.9851C144.746 49.1077 144.385 49.169 143.964 49.169ZM144.287 47.9759C144.698 47.9759 145.049 47.8946 145.341 47.7322C145.636 47.5698 145.86 47.3577 146.012 47.0959C146.168 46.8307 146.246 46.5473 146.246 46.2457V45.2614C146.193 45.3144 146.09 45.3641 145.938 45.4105C145.788 45.4536 145.618 45.4917 145.425 45.5249C145.233 45.5547 145.046 45.5829 144.864 45.6094C144.681 45.6326 144.529 45.6525 144.406 45.669C144.118 45.7055 143.854 45.7668 143.616 45.853C143.38 45.9392 143.192 46.0634 143.049 46.2259C142.91 46.3849 142.84 46.5971 142.84 46.8622C142.84 47.2301 142.976 47.5085 143.248 47.6974C143.52 47.883 143.866 47.9759 144.287 47.9759Z" fill="#D9E3EA"/>
<path opacity="0.64" d="M234 46H222C221.4 46 221 46.4 221 47C221 47.6 221.4 48 222 48H234C234.6 48 235 47.6 235 47C235 46.4 234.6 46 234 46Z" fill="#707D86"/>
<path opacity="0.64" d="M234 40H222C221.4 40 221 40.4 221 41C221 41.6 221.4 42 222 42H234C234.6 42 235 41.6 235 41C235 40.4 234.6 40 234 40Z" fill="#707D86"/>
<g filter="url(#filter1_d_0_312)">
<circle cx="81" cy="44" r="14" fill="url(#paint0_linear_0_312)"/>
</g>
<path d="M85 44C85 42.8954 85.8954 42 87 42V40C87 39.4477 86.5523 39 86 39H76C75.4477 39 75 39.4477 75 40V42C76.1046 42 77 42.8954 77 44C77 45.1046 76.1046 46 75 46V48C75 48.5523 75.4477 49 76 49H86C86.5523 49 87 48.5523 87 48V46C85.8954 46 85 45.1046 85 44Z" fill="#F6AE55"/>
<circle cx="51.5" cy="44.5" r="3.5" fill="#25282C" stroke="#707D86" stroke-width="2"/>
</g>
<g clip-path="url(#clip1_0_312)">
<g filter="url(#filter2_d_0_312)">
<rect x="119" y="84" width="148" height="48" rx="2" fill="#272A2D"/>
<rect x="119.5" y="84.5" width="147" height="47" rx="1.5" stroke="#33363A"/>
</g>
<path opacity="0.8" d="M179.415 113H176.119V102.818H179.519C180.517 102.818 181.374 103.022 182.089 103.43C182.805 103.834 183.354 104.416 183.735 105.175C184.12 105.93 184.312 106.837 184.312 107.894C184.312 108.955 184.118 109.866 183.73 110.629C183.346 111.391 182.789 111.978 182.06 112.388C181.33 112.796 180.449 113 179.415 113ZM177.655 111.658H179.33C180.106 111.658 180.75 111.512 181.264 111.22C181.778 110.925 182.162 110.499 182.418 109.942C182.673 109.382 182.8 108.7 182.8 107.894C182.8 107.095 182.673 106.418 182.418 105.861C182.166 105.304 181.79 104.881 181.289 104.593C180.789 104.305 180.167 104.161 179.425 104.161H177.655V111.658ZM189.394 113.154C188.642 113.154 187.994 112.993 187.45 112.672C186.91 112.347 186.492 111.891 186.197 111.305C185.906 110.715 185.76 110.024 185.76 109.232C185.76 108.449 185.906 107.76 186.197 107.163C186.492 106.567 186.903 106.101 187.43 105.766C187.961 105.432 188.58 105.264 189.29 105.264C189.72 105.264 190.138 105.335 190.542 105.478C190.947 105.621 191.31 105.844 191.631 106.149C191.953 106.454 192.206 106.85 192.392 107.337C192.577 107.821 192.67 108.41 192.67 109.102V109.629H186.6V108.516H191.214C191.214 108.125 191.134 107.778 190.975 107.477C190.816 107.172 190.592 106.931 190.304 106.756C190.019 106.58 189.684 106.492 189.3 106.492C188.882 106.492 188.517 106.595 188.206 106.8C187.898 107.003 187.659 107.268 187.49 107.596C187.324 107.921 187.241 108.274 187.241 108.655V109.525C187.241 110.035 187.331 110.469 187.51 110.827C187.692 111.185 187.946 111.459 188.27 111.648C188.595 111.833 188.975 111.926 189.409 111.926C189.691 111.926 189.948 111.886 190.18 111.807C190.412 111.724 190.612 111.601 190.781 111.439C190.95 111.277 191.079 111.076 191.169 110.837L192.576 111.091C192.463 111.505 192.261 111.868 191.969 112.18C191.681 112.488 191.318 112.728 190.881 112.901C190.446 113.07 189.951 113.154 189.394 113.154ZM200.042 107.228L198.695 107.467C198.638 107.294 198.549 107.13 198.426 106.974C198.307 106.819 198.144 106.691 197.939 106.592C197.733 106.492 197.477 106.442 197.168 106.442C196.747 106.442 196.396 106.537 196.114 106.726C195.833 106.911 195.692 107.152 195.692 107.447C195.692 107.702 195.786 107.907 195.975 108.063C196.164 108.219 196.469 108.347 196.89 108.446L198.103 108.724C198.806 108.887 199.329 109.137 199.674 109.475C200.019 109.813 200.191 110.252 200.191 110.793C200.191 111.25 200.058 111.658 199.793 112.016C199.531 112.37 199.165 112.649 198.695 112.851C198.227 113.053 197.685 113.154 197.069 113.154C196.214 113.154 195.516 112.972 194.976 112.607C194.436 112.239 194.104 111.717 193.982 111.041L195.418 110.822C195.508 111.197 195.692 111.48 195.97 111.673C196.249 111.862 196.612 111.956 197.059 111.956C197.546 111.956 197.936 111.855 198.227 111.653C198.519 111.447 198.665 111.197 198.665 110.902C198.665 110.663 198.575 110.463 198.396 110.3C198.221 110.138 197.951 110.015 197.586 109.933L196.293 109.649C195.581 109.487 195.054 109.228 194.712 108.874C194.374 108.519 194.205 108.07 194.205 107.526C194.205 107.076 194.331 106.681 194.583 106.343C194.835 106.005 195.183 105.741 195.627 105.553C196.071 105.36 196.58 105.264 197.153 105.264C197.979 105.264 198.628 105.443 199.102 105.801C199.576 106.156 199.889 106.631 200.042 107.228ZM203.193 110.41L203.183 108.595H203.441L206.484 105.364H208.264L204.794 109.043H204.56L203.193 110.41ZM201.825 113V102.818H203.312V113H201.825ZM206.648 113L203.914 109.371L204.938 108.332L208.472 113H206.648ZM213.183 105.364V106.557H209.012V105.364H213.183ZM210.131 103.534H211.617V110.758C211.617 111.046 211.66 111.263 211.746 111.409C211.832 111.552 211.943 111.649 212.079 111.702C212.219 111.752 212.369 111.777 212.532 111.777C212.651 111.777 212.756 111.769 212.845 111.752C212.934 111.736 213.004 111.722 213.054 111.712L213.322 112.94C213.236 112.973 213.113 113.007 212.954 113.04C212.795 113.076 212.596 113.096 212.358 113.099C211.967 113.106 211.602 113.036 211.264 112.891C210.926 112.745 210.653 112.519 210.444 112.214C210.235 111.91 210.131 111.527 210.131 111.066V103.534ZM217.962 113.154C217.246 113.154 216.621 112.99 216.088 112.662C215.554 112.334 215.14 111.875 214.845 111.285C214.55 110.695 214.402 110.005 214.402 109.217C214.402 108.424 214.55 107.732 214.845 107.138C215.14 106.545 215.554 106.085 216.088 105.756C216.621 105.428 217.246 105.264 217.962 105.264C218.678 105.264 219.303 105.428 219.836 105.756C220.37 106.085 220.784 106.545 221.079 107.138C221.374 107.732 221.522 108.424 221.522 109.217C221.522 110.005 221.374 110.695 221.079 111.285C220.784 111.875 220.37 112.334 219.836 112.662C219.303 112.99 218.678 113.154 217.962 113.154ZM217.967 111.906C218.431 111.906 218.815 111.784 219.12 111.538C219.425 111.293 219.651 110.967 219.797 110.559C219.946 110.151 220.02 109.702 220.02 109.212C220.02 108.724 219.946 108.277 219.797 107.869C219.651 107.458 219.425 107.129 219.12 106.88C218.815 106.631 218.431 106.507 217.967 106.507C217.5 106.507 217.112 106.631 216.804 106.88C216.499 107.129 216.272 107.458 216.123 107.869C215.977 108.277 215.904 108.724 215.904 109.212C215.904 109.702 215.977 110.151 216.123 110.559C216.272 110.967 216.499 111.293 216.804 111.538C217.112 111.784 217.5 111.906 217.967 111.906ZM223.181 115.864V105.364H224.633V106.602H224.757C224.843 106.442 224.967 106.259 225.13 106.05C225.292 105.841 225.518 105.659 225.806 105.503C226.094 105.344 226.475 105.264 226.949 105.264C227.566 105.264 228.116 105.42 228.6 105.732C229.084 106.043 229.463 106.492 229.738 107.079C230.017 107.665 230.156 108.371 230.156 109.197C230.156 110.022 230.019 110.73 229.743 111.32C229.468 111.906 229.09 112.359 228.61 112.677C228.129 112.992 227.581 113.149 226.964 113.149C226.5 113.149 226.121 113.071 225.826 112.915C225.534 112.76 225.305 112.577 225.14 112.369C224.974 112.16 224.846 111.974 224.757 111.812H224.667V115.864H223.181ZM224.638 109.182C224.638 109.719 224.715 110.189 224.871 110.594C225.027 110.998 225.252 111.315 225.547 111.543C225.842 111.769 226.204 111.881 226.631 111.881C227.075 111.881 227.447 111.764 227.745 111.528C228.043 111.29 228.269 110.967 228.421 110.559C228.577 110.151 228.655 109.692 228.655 109.182C228.655 108.678 228.578 108.226 228.426 107.825C228.277 107.424 228.051 107.107 227.75 106.875C227.452 106.643 227.079 106.527 226.631 106.527C226.2 106.527 225.836 106.638 225.537 106.86C225.242 107.082 225.019 107.392 224.866 107.79C224.714 108.187 224.638 108.652 224.638 109.182Z" fill="#D9E3EA"/>
<g filter="url(#filter3_d_0_312)">
<circle cx="149" cy="108" r="14" fill="url(#paint1_linear_0_312)"/>
</g>
<path d="M154.953 106.289C154.871 106.112 154.694 105.998 154.499 105.998H149.14L149.984 102.619C150.039 102.395 149.933 102.162 149.728 102.056C149.522 101.95 149.271 101.998 149.12 102.173L143.12 109.173C142.993 109.321 142.964 109.53 143.046 109.707C143.127 109.884 143.304 109.998 143.499 109.998H148.858L148.014 113.377C147.958 113.602 148.064 113.836 148.27 113.942C148.341 113.979 148.419 113.998 148.499 113.998C148.645 113.998 148.783 113.934 148.878 113.823L154.878 106.823C155.005 106.675 155.034 106.467 154.953 106.289Z" fill="#F56565"/>
<circle cx="119.5" cy="108.5" r="3.5" fill="#25282C" stroke="#707D86" stroke-width="2"/>
<circle cx="266.5" cy="108.5" r="3.5" fill="#25282C" stroke="#707D86" stroke-width="2"/>
</g>
<g clip-path="url(#clip2_0_312)">
<g filter="url(#filter4_d_0_312)">
<rect x="301" y="84" width="148" height="48" rx="2" fill="#272A2D"/>
<rect x="301.5" y="84.5" width="147" height="47" rx="1.5" stroke="#33363A"/>
</g>
<path opacity="0.8" d="M358.119 102.818H359.983L363.224 110.733H363.344L366.585 102.818H368.45V113H366.988V105.632H366.893L363.891 112.985H362.678L359.675 105.627H359.58V113H358.119V102.818ZM373.78 113.154C373.064 113.154 372.44 112.99 371.906 112.662C371.372 112.334 370.958 111.875 370.663 111.285C370.368 110.695 370.221 110.005 370.221 109.217C370.221 108.424 370.368 107.732 370.663 107.138C370.958 106.545 371.372 106.085 371.906 105.756C372.44 105.428 373.064 105.264 373.78 105.264C374.496 105.264 375.121 105.428 375.655 105.756C376.188 106.085 376.603 106.545 376.898 107.138C377.193 107.732 377.34 108.424 377.34 109.217C377.34 110.005 377.193 110.695 376.898 111.285C376.603 111.875 376.188 112.334 375.655 112.662C375.121 112.99 374.496 113.154 373.78 113.154ZM373.785 111.906C374.249 111.906 374.634 111.784 374.939 111.538C375.244 111.293 375.469 110.967 375.615 110.559C375.764 110.151 375.839 109.702 375.839 109.212C375.839 108.724 375.764 108.277 375.615 107.869C375.469 107.458 375.244 107.129 374.939 106.88C374.634 106.631 374.249 106.507 373.785 106.507C373.318 106.507 372.93 106.631 372.622 106.88C372.317 107.129 372.09 107.458 371.941 107.869C371.795 108.277 371.722 108.724 371.722 109.212C371.722 109.702 371.795 110.151 371.941 110.559C372.09 110.967 372.317 111.293 372.622 111.538C372.93 111.784 373.318 111.906 373.785 111.906ZM379.119 113V102.818H380.605V106.602H380.695C380.781 106.442 380.905 106.259 381.067 106.05C381.23 105.841 381.455 105.659 381.744 105.503C382.032 105.344 382.413 105.264 382.887 105.264C383.504 105.264 384.054 105.42 384.538 105.732C385.022 106.043 385.401 106.492 385.676 107.079C385.955 107.665 386.094 108.371 386.094 109.197C386.094 110.022 385.956 110.73 385.681 111.32C385.406 111.906 385.028 112.359 384.548 112.677C384.067 112.992 383.518 113.149 382.902 113.149C382.438 113.149 382.058 113.071 381.763 112.915C381.472 112.76 381.243 112.577 381.077 112.369C380.912 112.16 380.784 111.974 380.695 111.812H380.57V113H379.119ZM380.575 109.182C380.575 109.719 380.653 110.189 380.809 110.594C380.965 110.998 381.19 111.315 381.485 111.543C381.78 111.769 382.141 111.881 382.569 111.881C383.013 111.881 383.384 111.764 383.683 111.528C383.981 111.29 384.206 110.967 384.359 110.559C384.514 110.151 384.592 109.692 384.592 109.182C384.592 108.678 384.516 108.226 384.364 107.825C384.214 107.424 383.989 107.107 383.688 106.875C383.389 106.643 383.016 106.527 382.569 106.527C382.138 106.527 381.773 106.638 381.475 106.86C381.18 107.082 380.956 107.392 380.804 107.79C380.652 108.187 380.575 108.652 380.575 109.182ZM387.763 113V105.364H389.249V113H387.763ZM388.514 104.185C388.255 104.185 388.033 104.099 387.847 103.927C387.665 103.751 387.574 103.542 387.574 103.3C387.574 103.055 387.665 102.846 387.847 102.674C388.033 102.498 388.255 102.411 388.514 102.411C388.772 102.411 388.993 102.498 389.175 102.674C389.36 102.846 389.453 103.055 389.453 103.3C389.453 103.542 389.36 103.751 389.175 103.927C388.993 104.099 388.772 104.185 388.514 104.185ZM392.736 102.818V113H391.249V102.818H392.736ZM398.027 113.154C397.274 113.154 396.626 112.993 396.083 112.672C395.543 112.347 395.125 111.891 394.83 111.305C394.538 110.715 394.393 110.024 394.393 109.232C394.393 108.449 394.538 107.76 394.83 107.163C395.125 106.567 395.536 106.101 396.063 105.766C396.593 105.432 397.213 105.264 397.922 105.264C398.353 105.264 398.771 105.335 399.175 105.478C399.58 105.621 399.943 105.844 400.264 106.149C400.586 106.454 400.839 106.85 401.025 107.337C401.21 107.821 401.303 108.41 401.303 109.102V109.629H395.233V108.516H399.846C399.846 108.125 399.767 107.778 399.608 107.477C399.449 107.172 399.225 106.931 398.937 106.756C398.652 106.58 398.317 106.492 397.932 106.492C397.515 106.492 397.15 106.595 396.839 106.8C396.53 107.003 396.292 107.268 396.123 107.596C395.957 107.921 395.874 108.274 395.874 108.655V109.525C395.874 110.035 395.964 110.469 396.143 110.827C396.325 111.185 396.578 111.459 396.903 111.648C397.228 111.833 397.608 111.926 398.042 111.926C398.323 111.926 398.58 111.886 398.812 111.807C399.044 111.724 399.245 111.601 399.414 111.439C399.583 111.277 399.712 111.076 399.802 110.837L401.209 111.091C401.096 111.505 400.894 111.868 400.602 112.18C400.314 112.488 399.951 112.728 399.513 112.901C399.079 113.07 398.584 113.154 398.027 113.154Z" fill="#D9E3EA"/>
<g filter="url(#filter5_d_0_312)">
<circle cx="331" cy="108" r="14" fill="url(#paint2_linear_0_312)"/>
</g>
<circle cx="334.5" cy="104.5" r="2.5" fill="#5D5DFF"/>
<circle cx="327.5" cy="104.5" r="2.5" fill="#5D5DFF"/>
<circle cx="334.5" cy="111.5" r="2.5" fill="#5D5DFF"/>
<circle cx="327.5" cy="111.5" r="2.5" fill="#5D5DFF"/>
<circle cx="301.5" cy="108.5" r="3.5" fill="#25282C" stroke="#707D86" stroke-width="2"/>
<circle cx="449.5" cy="108.5" r="3.5" fill="#25282C" stroke="#707D86" stroke-width="2"/>
</g>
<g clip-path="url(#clip3_0_312)">
<g filter="url(#filter6_d_0_312)">
<rect x="207" y="148" width="200" height="48" rx="2" fill="#272A2D"/>
<rect x="207.5" y="148.5" width="199" height="47" rx="1.5" stroke="#33363A"/>
</g>
<path opacity="0.8" d="M264.119 177V166.818H270.502V168.141H265.655V171.243H270.169V172.56H265.655V175.678H270.562V177H264.119ZM273.608 169.364L275.294 172.337L276.994 169.364H278.619L276.238 173.182L278.639 177H277.014L275.294 174.146L273.578 177H271.948L274.324 173.182L271.977 169.364H273.608ZM283.136 177.154C282.384 177.154 281.736 176.993 281.192 176.672C280.652 176.347 280.234 175.891 279.939 175.305C279.648 174.715 279.502 174.024 279.502 173.232C279.502 172.449 279.648 171.76 279.939 171.163C280.234 170.567 280.645 170.101 281.172 169.766C281.703 169.432 282.323 169.264 283.032 169.264C283.463 169.264 283.88 169.335 284.285 169.478C284.689 169.621 285.052 169.844 285.373 170.149C285.695 170.454 285.948 170.85 286.134 171.337C286.32 171.821 286.412 172.41 286.412 173.102V173.629H280.342V172.516H284.956C284.956 172.125 284.876 171.778 284.717 171.477C284.558 171.172 284.334 170.931 284.046 170.756C283.761 170.58 283.426 170.492 283.042 170.492C282.624 170.492 282.26 170.595 281.948 170.8C281.64 171.003 281.401 171.268 281.232 171.596C281.066 171.921 280.983 172.274 280.983 172.655V173.525C280.983 174.035 281.073 174.469 281.252 174.827C281.434 175.185 281.688 175.459 282.013 175.648C282.337 175.833 282.717 175.926 283.151 175.926C283.433 175.926 283.69 175.886 283.922 175.807C284.154 175.724 284.354 175.601 284.523 175.439C284.692 175.277 284.822 175.076 284.911 174.837L286.318 175.091C286.205 175.505 286.003 175.868 285.711 176.18C285.423 176.488 285.06 176.728 284.623 176.901C284.189 177.07 283.693 177.154 283.136 177.154ZM288.062 177V169.364H289.499V170.577H289.578C289.717 170.166 289.963 169.843 290.314 169.607C290.669 169.369 291.07 169.249 291.517 169.249C291.61 169.249 291.719 169.253 291.845 169.259C291.974 169.266 292.076 169.274 292.148 169.284V170.706C292.089 170.689 291.983 170.671 291.83 170.651C291.678 170.628 291.525 170.616 291.373 170.616C291.022 170.616 290.708 170.691 290.433 170.84C290.161 170.986 289.946 171.19 289.787 171.452C289.628 171.71 289.548 172.005 289.548 172.337V177H288.062ZM296.378 177.154C295.639 177.154 295.003 176.987 294.469 176.652C293.939 176.314 293.531 175.848 293.246 175.255C292.961 174.662 292.818 173.982 292.818 173.217C292.818 172.441 292.964 171.757 293.256 171.163C293.548 170.567 293.959 170.101 294.489 169.766C295.019 169.432 295.644 169.264 296.363 169.264C296.943 169.264 297.46 169.372 297.914 169.587C298.368 169.799 298.735 170.098 299.013 170.482C299.295 170.867 299.462 171.316 299.515 171.83H298.068C297.989 171.472 297.807 171.163 297.521 170.905C297.24 170.646 296.862 170.517 296.388 170.517C295.974 170.517 295.611 170.626 295.299 170.845C294.991 171.061 294.751 171.369 294.578 171.77C294.406 172.168 294.32 172.638 294.32 173.182C294.32 173.739 294.404 174.219 294.573 174.624C294.742 175.028 294.981 175.341 295.289 175.563C295.601 175.785 295.967 175.896 296.388 175.896C296.67 175.896 296.925 175.845 297.154 175.742C297.386 175.636 297.579 175.485 297.735 175.29C297.894 175.094 298.005 174.859 298.068 174.584H299.515C299.462 175.078 299.301 175.518 299.033 175.906C298.764 176.294 298.405 176.599 297.954 176.821C297.507 177.043 296.981 177.154 296.378 177.154ZM301.105 177V169.364H302.591V177H301.105ZM301.855 168.185C301.597 168.185 301.375 168.099 301.189 167.927C301.007 167.751 300.916 167.542 300.916 167.3C300.916 167.055 301.007 166.846 301.189 166.674C301.375 166.498 301.597 166.411 301.855 166.411C302.114 166.411 302.334 166.498 302.517 166.674C302.702 166.846 302.795 167.055 302.795 167.3C302.795 167.542 302.702 167.751 302.517 167.927C302.334 168.099 302.114 168.185 301.855 168.185ZM308.156 169.364V170.557H303.985V169.364H308.156ZM305.103 167.534H306.59V174.758C306.59 175.046 306.633 175.263 306.719 175.409C306.805 175.552 306.916 175.649 307.052 175.702C307.191 175.752 307.342 175.777 307.504 175.777C307.624 175.777 307.728 175.769 307.818 175.752C307.907 175.736 307.977 175.722 308.026 175.712L308.295 176.94C308.209 176.973 308.086 177.007 307.927 177.04C307.768 177.076 307.569 177.096 307.33 177.099C306.939 177.106 306.575 177.036 306.237 176.891C305.899 176.745 305.625 176.519 305.416 176.214C305.208 175.91 305.103 175.527 305.103 175.066V167.534ZM312.022 177.169C311.538 177.169 311.101 177.08 310.71 176.901C310.319 176.718 310.009 176.455 309.78 176.11C309.555 175.765 309.442 175.343 309.442 174.842C309.442 174.411 309.525 174.057 309.691 173.778C309.856 173.5 310.08 173.28 310.362 173.117C310.644 172.955 310.958 172.832 311.306 172.749C311.654 172.666 312.009 172.603 312.37 172.56C312.828 172.507 313.199 172.464 313.484 172.431C313.769 172.395 313.976 172.337 314.105 172.257C314.235 172.178 314.299 172.048 314.299 171.869V171.835C314.299 171.4 314.177 171.064 313.931 170.825C313.69 170.587 313.328 170.467 312.848 170.467C312.347 170.467 311.953 170.578 311.664 170.8C311.379 171.019 311.182 171.263 311.073 171.531L309.676 171.213C309.842 170.749 310.083 170.375 310.402 170.089C310.723 169.801 311.093 169.592 311.51 169.463C311.928 169.33 312.367 169.264 312.828 169.264C313.133 169.264 313.456 169.301 313.797 169.374C314.142 169.443 314.463 169.572 314.762 169.761C315.063 169.95 315.31 170.22 315.502 170.572C315.695 170.92 315.791 171.372 315.791 171.929V177H314.339V175.956H314.279C314.183 176.148 314.039 176.337 313.847 176.523C313.655 176.708 313.408 176.862 313.106 176.985C312.805 177.108 312.443 177.169 312.022 177.169ZM312.346 175.976C312.757 175.976 313.108 175.895 313.4 175.732C313.694 175.57 313.918 175.358 314.071 175.096C314.226 174.831 314.304 174.547 314.304 174.246V173.261C314.251 173.314 314.149 173.364 313.996 173.411C313.847 173.454 313.676 173.492 313.484 173.525C313.292 173.555 313.105 173.583 312.922 173.609C312.74 173.633 312.587 173.652 312.465 173.669C312.176 173.705 311.913 173.767 311.674 173.853C311.439 173.939 311.25 174.063 311.108 174.226C310.968 174.385 310.899 174.597 310.899 174.862C310.899 175.23 311.035 175.509 311.306 175.697C311.578 175.883 311.925 175.976 312.346 175.976ZM321.335 169.364V170.557H317.164V169.364H321.335ZM318.283 167.534H319.769V174.758C319.769 175.046 319.812 175.263 319.899 175.409C319.985 175.552 320.096 175.649 320.232 175.702C320.371 175.752 320.522 175.777 320.684 175.777C320.803 175.777 320.908 175.769 320.997 175.752C321.087 175.736 321.156 175.722 321.206 175.712L321.475 176.94C321.388 176.973 321.266 177.007 321.107 177.04C320.948 177.076 320.749 177.096 320.51 177.099C320.119 177.106 319.754 177.036 319.416 176.891C319.078 176.745 318.805 176.519 318.596 176.214C318.387 175.91 318.283 175.527 318.283 175.066V167.534ZM322.98 177V169.364H324.466V177H322.98ZM323.73 168.185C323.472 168.185 323.25 168.099 323.064 167.927C322.882 167.751 322.791 167.542 322.791 167.3C322.791 167.055 322.882 166.846 323.064 166.674C323.25 166.498 323.472 166.411 323.73 166.411C323.989 166.411 324.209 166.498 324.392 166.674C324.577 166.846 324.67 167.055 324.67 167.3C324.67 167.542 324.577 167.751 324.392 167.927C324.209 168.099 323.989 168.185 323.73 168.185ZM329.683 177.154C328.967 177.154 328.342 176.99 327.808 176.662C327.275 176.334 326.86 175.875 326.566 175.285C326.271 174.695 326.123 174.005 326.123 173.217C326.123 172.424 326.271 171.732 326.566 171.138C326.86 170.545 327.275 170.085 327.808 169.756C328.342 169.428 328.967 169.264 329.683 169.264C330.399 169.264 331.023 169.428 331.557 169.756C332.091 170.085 332.505 170.545 332.8 171.138C333.095 171.732 333.242 172.424 333.242 173.217C333.242 174.005 333.095 174.695 332.8 175.285C332.505 175.875 332.091 176.334 331.557 176.662C331.023 176.99 330.399 177.154 329.683 177.154ZM329.688 175.906C330.152 175.906 330.536 175.784 330.841 175.538C331.146 175.293 331.371 174.967 331.517 174.559C331.666 174.151 331.741 173.702 331.741 173.212C331.741 172.724 331.666 172.277 331.517 171.869C331.371 171.458 331.146 171.129 330.841 170.88C330.536 170.631 330.152 170.507 329.688 170.507C329.22 170.507 328.833 170.631 328.524 170.88C328.219 171.129 327.992 171.458 327.843 171.869C327.697 172.277 327.624 172.724 327.624 173.212C327.624 173.702 327.697 174.151 327.843 174.559C327.992 174.967 328.219 175.293 328.524 175.538C328.833 175.784 329.22 175.906 329.688 175.906ZM336.388 172.466V177H334.902V169.364H336.328V170.607H336.423C336.599 170.202 336.874 169.877 337.248 169.632C337.626 169.387 338.102 169.264 338.675 169.264C339.195 169.264 339.651 169.374 340.042 169.592C340.433 169.808 340.737 170.129 340.952 170.557C341.167 170.984 341.275 171.513 341.275 172.143V177H339.789V172.322C339.789 171.768 339.645 171.336 339.356 171.024C339.068 170.709 338.672 170.552 338.168 170.552C337.823 170.552 337.517 170.626 337.248 170.776C336.983 170.925 336.773 171.143 336.617 171.432C336.464 171.717 336.388 172.062 336.388 172.466Z" fill="#D9E3EA"/>
<circle opacity="0.64" cx="383" cy="172" r="2" fill="#707D86"/>
<circle opacity="0.64" cx="377" cy="172" r="2" fill="#707D86"/>
<circle opacity="0.64" cx="389" cy="172" r="2" fill="#707D86"/>
<g filter="url(#filter7_d_0_312)">
<circle cx="237" cy="172" r="14" fill="url(#paint3_linear_0_312)"/>
</g>
<path d="M241.854 167.146C241.716 167.009 241.512 166.964 241.329 167.03L230.329 171.03C230.134 171.101 230.003 171.285 230 171.492C229.997 171.699 230.122 171.887 230.314 171.964L235.114 173.885L237.035 178.685C237.111 178.876 237.295 179.001 237.5 179H237.508C237.715 178.997 237.899 178.866 237.97 178.671L241.97 167.671C242.037 167.489 241.992 167.284 241.854 167.146Z" fill="#5D5DFF"/>
<circle cx="207.5" cy="172.5" r="3.5" fill="#25282C" stroke="#707D86" stroke-width="2"/>
<circle cx="407.5" cy="172.5" r="3.5" fill="#25282C" stroke="#707D86" stroke-width="2"/>
</g>
<g clip-path="url(#clip4_0_312)">
<g filter="url(#filter8_d_0_312)">
<rect x="275" y="212" width="160" height="48" rx="2" fill="#272A2D"/>
<rect x="275.5" y="212.5" width="159" height="47" rx="1.5" stroke="#33363A"/>
</g>
<path opacity="0.8" d="M340.963 234.909C340.963 235.996 340.764 236.931 340.366 237.713C339.969 238.492 339.424 239.092 338.731 239.513C338.041 239.93 337.258 240.139 336.379 240.139C335.498 240.139 334.71 239.93 334.018 239.513C333.328 239.092 332.785 238.49 332.387 237.708C331.989 236.926 331.79 235.993 331.79 234.909C331.79 233.822 331.989 232.889 332.387 232.11C332.785 231.328 333.328 230.728 334.018 230.31C334.71 229.889 335.498 229.679 336.379 229.679C337.258 229.679 338.041 229.889 338.731 230.31C339.424 230.728 339.969 231.328 340.366 232.11C340.764 232.889 340.963 233.822 340.963 234.909ZM339.442 234.909C339.442 234.08 339.308 233.383 339.039 232.816C338.774 232.246 338.409 231.815 337.945 231.523C337.485 231.228 336.963 231.081 336.379 231.081C335.793 231.081 335.269 231.228 334.808 231.523C334.348 231.815 333.983 232.246 333.714 232.816C333.449 233.383 333.317 234.08 333.317 234.909C333.317 235.738 333.449 236.437 333.714 237.007C333.983 237.574 334.348 238.005 334.808 238.3C335.269 238.591 335.793 238.737 336.379 238.737C336.963 238.737 337.485 238.591 337.945 238.3C338.409 238.005 338.774 237.574 339.039 237.007C339.308 236.437 339.442 235.738 339.442 234.909ZM344.246 235.466V240H342.759V232.364H344.186V233.607H344.28C344.456 233.202 344.731 232.877 345.106 232.632C345.483 232.387 345.959 232.264 346.532 232.264C347.053 232.264 347.509 232.374 347.9 232.592C348.291 232.808 348.594 233.129 348.809 233.557C349.025 233.984 349.133 234.513 349.133 235.143V240H347.646V235.322C347.646 234.768 347.502 234.336 347.214 234.024C346.925 233.709 346.529 233.552 346.025 233.552C345.681 233.552 345.374 233.626 345.106 233.776C344.84 233.925 344.63 234.143 344.474 234.432C344.322 234.717 344.246 235.062 344.246 235.466ZM352.613 229.818V240H351.126V229.818H352.613ZM354.613 240V232.364H356.099V240H354.613ZM355.363 231.185C355.105 231.185 354.883 231.099 354.697 230.927C354.515 230.751 354.424 230.542 354.424 230.3C354.424 230.055 354.515 229.846 354.697 229.674C354.883 229.498 355.105 229.411 355.363 229.411C355.622 229.411 355.842 229.498 356.025 229.674C356.21 229.846 356.303 230.055 356.303 230.3C356.303 230.542 356.21 230.751 356.025 230.927C355.842 231.099 355.622 231.185 355.363 231.185ZM359.585 235.466V240H358.099V232.364H359.526V233.607H359.62C359.796 233.202 360.071 232.877 360.445 232.632C360.823 232.387 361.299 232.264 361.872 232.264C362.393 232.264 362.848 232.374 363.24 232.592C363.631 232.808 363.934 233.129 364.149 233.557C364.365 233.984 364.472 234.513 364.472 235.143V240H362.986V235.322C362.986 234.768 362.842 234.336 362.553 234.024C362.265 233.709 361.869 233.552 361.365 233.552C361.021 233.552 360.714 233.626 360.445 233.776C360.18 233.925 359.97 234.143 359.814 234.432C359.662 234.717 359.585 235.062 359.585 235.466ZM369.757 240.154C369.005 240.154 368.357 239.993 367.813 239.672C367.273 239.347 366.856 238.891 366.561 238.305C366.269 237.715 366.123 237.024 366.123 236.232C366.123 235.449 366.269 234.76 366.561 234.163C366.856 233.567 367.267 233.101 367.794 232.766C368.324 232.432 368.944 232.264 369.653 232.264C370.084 232.264 370.501 232.335 370.906 232.478C371.31 232.621 371.673 232.844 371.994 233.149C372.316 233.454 372.57 233.85 372.755 234.337C372.941 234.821 373.034 235.41 373.034 236.102V236.629H366.963V235.516H371.577C371.577 235.125 371.497 234.778 371.338 234.477C371.179 234.172 370.955 233.931 370.667 233.756C370.382 233.58 370.047 233.492 369.663 233.492C369.245 233.492 368.881 233.595 368.569 233.8C368.261 234.003 368.022 234.268 367.853 234.596C367.687 234.921 367.605 235.274 367.605 235.655V236.525C367.605 237.035 367.694 237.469 367.873 237.827C368.055 238.185 368.309 238.459 368.634 238.648C368.959 238.833 369.338 238.926 369.772 238.926C370.054 238.926 370.311 238.886 370.543 238.807C370.775 238.724 370.975 238.601 371.144 238.439C371.313 238.277 371.443 238.076 371.532 237.837L372.939 238.091C372.826 238.505 372.624 238.868 372.333 239.18C372.044 239.488 371.681 239.728 371.244 239.901C370.81 240.07 370.314 240.154 369.757 240.154Z" fill="#D9E3EA"/>
<g filter="url(#filter9_d_0_312)">
<circle cx="305" cy="236" r="14" fill="url(#paint4_linear_0_312)"/>
</g>
<path fill-rule="evenodd" clip-rule="evenodd" d="M302.783 230.088C302.63 229.983 302.431 229.971 302.267 230.058C302.103 230.144 302 230.314 302 230.5V241.5C302 241.685 302.104 241.856 302.268 241.942C302.339 241.98 302.419 242 302.5 242C302.601 242 302.7 241.969 302.783 241.912L310.783 236.412C310.919 236.319 311 236.164 311 236C311 235.835 310.919 235.681 310.783 235.588L302.783 230.088Z" fill="#48BB78"/>
<circle cx="275.5" cy="236.5" r="3.5" fill="#25282C" stroke="#707D86" stroke-width="2"/>
</g>
<g clip-path="url(#clip5_0_312)">
<rect x="47" y="206" width="108" height="24" rx="12" fill="#5D5DFF"/>
<circle cx="39.5" cy="217.5" r="2.5" fill="#6163FF"/>
<path d="M57.9588 222V213.273H61.0696C61.7486 213.273 62.3111 213.396 62.7571 213.643C63.2031 213.891 63.5369 214.229 63.7585 214.658C63.9801 215.084 64.0909 215.564 64.0909 216.098C64.0909 216.635 63.9787 217.118 63.7543 217.547C63.5327 217.973 63.1974 218.311 62.7486 218.561C62.3026 218.808 61.7415 218.932 61.0653 218.932H58.9261V217.815H60.946C61.375 217.815 61.723 217.741 61.9901 217.594C62.2571 217.443 62.4531 217.239 62.5781 216.98C62.7031 216.722 62.7656 216.428 62.7656 216.098C62.7656 215.768 62.7031 215.476 62.5781 215.22C62.4531 214.964 62.2557 214.764 61.9858 214.619C61.7188 214.474 61.3665 214.402 60.929 214.402H59.2756V222H57.9588ZM67.3786 222.145C66.9638 222.145 66.5888 222.068 66.2536 221.915C65.9183 221.759 65.6527 221.533 65.4567 221.237C65.2635 220.942 65.1669 220.58 65.1669 220.151C65.1669 219.781 65.2379 219.477 65.38 219.239C65.522 219 65.7138 218.811 65.9553 218.672C66.1967 218.533 66.4666 218.428 66.7649 218.357C67.0632 218.286 67.3672 218.232 67.6768 218.195C68.0689 218.149 68.3871 218.112 68.6314 218.084C68.8757 218.053 69.0533 218.003 69.1641 217.935C69.2749 217.866 69.3303 217.756 69.3303 217.602V217.572C69.3303 217.2 69.2251 216.912 69.0149 216.707C68.8075 216.503 68.4979 216.401 68.0859 216.401C67.657 216.401 67.3189 216.496 67.0717 216.686C66.8274 216.874 66.6584 217.082 66.5646 217.312L65.3672 217.04C65.5092 216.642 65.7166 216.321 65.9893 216.077C66.2649 215.83 66.5817 215.651 66.9396 215.54C67.2976 215.426 67.674 215.369 68.0689 215.369C68.3303 215.369 68.6072 215.401 68.8999 215.463C69.1953 215.523 69.4709 215.634 69.7266 215.795C69.9851 215.957 70.1967 216.189 70.3615 216.49C70.5263 216.788 70.6087 217.176 70.6087 217.653V222H69.3643V221.105H69.3132C69.2308 221.27 69.1072 221.432 68.9425 221.591C68.7777 221.75 68.5661 221.882 68.3075 221.987C68.049 222.092 67.7393 222.145 67.3786 222.145ZM67.6555 221.122C68.0078 221.122 68.3089 221.053 68.5589 220.913C68.8118 220.774 69.0036 220.592 69.1342 220.368C69.2678 220.141 69.3345 219.898 69.3345 219.639V218.795C69.2891 218.841 69.201 218.884 69.0703 218.923C68.9425 218.96 68.7962 218.993 68.6314 219.021C68.4666 219.047 68.3061 219.071 68.1499 219.094C67.9936 219.114 67.8629 219.131 67.7578 219.145C67.5107 219.176 67.2848 219.229 67.0803 219.303C66.8786 219.376 66.7166 219.483 66.5945 219.622C66.4751 219.759 66.4155 219.94 66.4155 220.168C66.4155 220.483 66.532 220.722 66.7649 220.884C66.9979 221.043 67.2947 221.122 67.6555 221.122ZM75.3612 215.455V216.477H71.7859V215.455H75.3612ZM72.7447 213.886H74.0188V220.078C74.0188 220.325 74.0558 220.511 74.1296 220.636C74.2035 220.759 74.2987 220.842 74.4151 220.888C74.5344 220.93 74.6637 220.952 74.8029 220.952C74.9052 220.952 74.9947 220.945 75.0714 220.93C75.1481 220.916 75.2077 220.905 75.2504 220.896L75.4805 221.949C75.4066 221.977 75.3015 222.006 75.1651 222.034C75.0288 222.065 74.8583 222.082 74.6538 222.085C74.3185 222.091 74.006 222.031 73.7163 221.906C73.4265 221.781 73.1921 221.588 73.0131 221.327C72.8342 221.065 72.7447 220.737 72.7447 220.342V213.886ZM76.7706 222V215.455H78.0021V216.494H78.0703C78.1896 216.142 78.3999 215.865 78.701 215.663C79.005 215.459 79.3487 215.357 79.7322 215.357C79.8118 215.357 79.9055 215.359 80.0135 215.365C80.1243 215.371 80.2109 215.378 80.2734 215.386V216.605C80.2223 216.591 80.1314 216.575 80.0007 216.558C79.87 216.538 79.7393 216.528 79.6087 216.528C79.3075 216.528 79.0391 216.592 78.8033 216.72C78.5703 216.845 78.3857 217.02 78.2493 217.244C78.1129 217.466 78.0447 217.719 78.0447 218.003V222H76.7706ZM81.3761 222V215.455H82.6502V222H81.3761ZM82.0195 214.445C81.7979 214.445 81.6076 214.371 81.4485 214.223C81.2923 214.072 81.2141 213.893 81.2141 213.686C81.2141 213.476 81.2923 213.297 81.4485 213.149C81.6076 212.999 81.7979 212.923 82.0195 212.923C82.2411 212.923 82.43 212.999 82.5863 213.149C82.7454 213.297 82.8249 213.476 82.8249 213.686C82.8249 213.893 82.7454 214.072 82.5863 214.223C82.43 214.371 82.2411 214.445 82.0195 214.445ZM87.1214 222.132C86.4879 222.132 85.9425 221.989 85.4851 221.702C85.0305 221.412 84.6811 221.013 84.4368 220.504C84.1925 219.996 84.0703 219.413 84.0703 218.757C84.0703 218.092 84.1953 217.506 84.4453 216.997C84.6953 216.486 85.0476 216.087 85.5021 215.8C85.9567 215.513 86.4922 215.369 87.1087 215.369C87.6058 215.369 88.049 215.462 88.4382 215.646C88.8274 215.828 89.1413 216.084 89.38 216.413C89.6214 216.743 89.7649 217.128 89.8104 217.568H88.5703C88.5021 217.261 88.3459 216.997 88.1016 216.776C87.8601 216.554 87.5362 216.443 87.13 216.443C86.7749 216.443 86.4638 216.537 86.1967 216.724C85.9325 216.909 85.7266 217.173 85.5788 217.517C85.4311 217.858 85.3572 218.261 85.3572 218.727C85.3572 219.205 85.4297 219.616 85.5746 219.963C85.7195 220.31 85.924 220.578 86.1882 220.768C86.4553 220.959 86.7692 221.054 87.13 221.054C87.3714 221.054 87.5902 221.01 87.7862 220.922C87.9851 220.831 88.1513 220.702 88.2848 220.534C88.4212 220.366 88.5163 220.165 88.5703 219.929H89.8104C89.7649 220.352 89.6271 220.73 89.397 221.062C89.1669 221.395 88.8587 221.656 88.4723 221.847C88.0888 222.037 87.6385 222.132 87.1214 222.132ZM92.3448 219.78L92.3363 218.224H92.5579L95.1658 215.455H96.6914L93.717 218.608H93.5167L92.3448 219.78ZM91.1729 222V213.273H92.4471V222H91.1729ZM95.3065 222L92.9627 218.889L93.8406 217.999L96.8704 222H95.3065ZM105.891 215.565C105.845 215.162 105.658 214.849 105.328 214.628C104.999 214.403 104.584 214.291 104.084 214.291C103.726 214.291 103.416 214.348 103.155 214.462C102.893 214.572 102.69 214.726 102.545 214.922C102.403 215.115 102.332 215.335 102.332 215.582C102.332 215.79 102.381 215.969 102.477 216.119C102.577 216.27 102.706 216.396 102.865 216.499C103.027 216.598 103.2 216.682 103.385 216.75C103.57 216.815 103.747 216.869 103.918 216.912L104.77 217.134C105.048 217.202 105.334 217.294 105.626 217.411C105.919 217.527 106.19 217.68 106.44 217.871C106.69 218.061 106.892 218.297 107.045 218.578C107.202 218.859 107.28 219.196 107.28 219.588C107.28 220.082 107.152 220.521 106.896 220.905C106.643 221.288 106.276 221.591 105.793 221.812C105.313 222.034 104.732 222.145 104.05 222.145C103.396 222.145 102.831 222.041 102.354 221.834C101.876 221.626 101.503 221.332 101.233 220.952C100.963 220.568 100.814 220.114 100.786 219.588H102.107C102.132 219.903 102.234 220.166 102.413 220.376C102.595 220.584 102.827 220.739 103.108 220.841C103.392 220.94 103.703 220.99 104.041 220.99C104.413 220.99 104.744 220.932 105.034 220.815C105.327 220.696 105.557 220.531 105.724 220.321C105.892 220.108 105.976 219.859 105.976 219.575C105.976 219.317 105.902 219.105 105.754 218.94C105.609 218.776 105.412 218.639 105.162 218.531C104.915 218.423 104.635 218.328 104.322 218.246L103.291 217.964C102.592 217.774 102.038 217.494 101.629 217.125C101.223 216.756 101.02 216.267 101.02 215.659C101.02 215.156 101.156 214.717 101.429 214.342C101.702 213.967 102.071 213.676 102.537 213.469C103.003 213.259 103.528 213.153 104.114 213.153C104.705 213.153 105.226 213.257 105.678 213.464C106.132 213.672 106.49 213.957 106.751 214.321C107.013 214.682 107.149 215.097 107.161 215.565H105.891ZM110.025 218.114V222H108.751V213.273H110.008V216.52H110.089C110.243 216.168 110.477 215.888 110.792 215.68C111.108 215.473 111.52 215.369 112.028 215.369C112.477 215.369 112.869 215.462 113.204 215.646C113.542 215.831 113.804 216.107 113.988 216.473C114.176 216.837 114.27 217.291 114.27 217.837V222H112.995V217.99C112.995 217.51 112.872 217.138 112.625 216.874C112.377 216.607 112.034 216.473 111.593 216.473C111.292 216.473 111.022 216.537 110.784 216.665C110.548 216.793 110.362 216.98 110.225 217.227C110.092 217.472 110.025 217.767 110.025 218.114ZM117.875 222.145C117.46 222.145 117.085 222.068 116.75 221.915C116.414 221.759 116.149 221.533 115.953 221.237C115.76 220.942 115.663 220.58 115.663 220.151C115.663 219.781 115.734 219.477 115.876 219.239C116.018 219 116.21 218.811 116.451 218.672C116.693 218.533 116.963 218.428 117.261 218.357C117.559 218.286 117.863 218.232 118.173 218.195C118.565 218.149 118.883 218.112 119.127 218.084C119.372 218.053 119.549 218.003 119.66 217.935C119.771 217.866 119.826 217.756 119.826 217.602V217.572C119.826 217.2 119.721 216.912 119.511 216.707C119.304 216.503 118.994 216.401 118.582 216.401C118.153 216.401 117.815 216.496 117.568 216.686C117.324 216.874 117.154 217.082 117.061 217.312L115.863 217.04C116.005 216.642 116.213 216.321 116.485 216.077C116.761 215.83 117.078 215.651 117.436 215.54C117.794 215.426 118.17 215.369 118.565 215.369C118.826 215.369 119.103 215.401 119.396 215.463C119.691 215.523 119.967 215.634 120.223 215.795C120.481 215.957 120.693 216.189 120.858 216.49C121.022 216.788 121.105 217.176 121.105 217.653V222H119.86V221.105H119.809C119.727 221.27 119.603 221.432 119.439 221.591C119.274 221.75 119.062 221.882 118.804 221.987C118.545 222.092 118.235 222.145 117.875 222.145ZM118.152 221.122C118.504 221.122 118.805 221.053 119.055 220.913C119.308 220.774 119.5 220.592 119.63 220.368C119.764 220.141 119.831 219.898 119.831 219.639V218.795C119.785 218.841 119.697 218.884 119.566 218.923C119.439 218.96 119.292 218.993 119.127 219.021C118.963 219.047 118.802 219.071 118.646 219.094C118.49 219.114 118.359 219.131 118.254 219.145C118.007 219.176 117.781 219.229 117.576 219.303C117.375 219.376 117.213 219.483 117.091 219.622C116.971 219.759 116.912 219.94 116.912 220.168C116.912 220.483 117.028 220.722 117.261 220.884C117.494 221.043 117.791 221.122 118.152 221.122ZM122.802 222V215.455H124.033V216.494H124.102C124.221 216.142 124.431 215.865 124.732 215.663C125.036 215.459 125.38 215.357 125.763 215.357C125.843 215.357 125.937 215.359 126.045 215.365C126.156 215.371 126.242 215.378 126.305 215.386V216.605C126.254 216.591 126.163 216.575 126.032 216.558C125.901 216.538 125.771 216.528 125.64 216.528C125.339 216.528 125.07 216.592 124.835 216.72C124.602 216.845 124.417 217.02 124.281 217.244C124.144 217.466 124.076 217.719 124.076 218.003V222H122.802ZM127.407 222V215.455H128.63V216.52H128.711C128.848 216.159 129.071 215.878 129.38 215.676C129.69 215.472 130.061 215.369 130.493 215.369C130.93 215.369 131.297 215.472 131.592 215.676C131.89 215.881 132.11 216.162 132.252 216.52H132.321C132.477 216.17 132.725 215.892 133.066 215.685C133.407 215.474 133.814 215.369 134.285 215.369C134.879 215.369 135.363 215.555 135.738 215.928C136.116 216.3 136.305 216.861 136.305 217.611V222H135.031V217.73C135.031 217.287 134.91 216.966 134.669 216.767C134.427 216.568 134.139 216.469 133.804 216.469C133.389 216.469 133.066 216.597 132.836 216.852C132.606 217.105 132.491 217.43 132.491 217.828V222H131.221V217.649C131.221 217.294 131.11 217.009 130.889 216.793C130.667 216.577 130.379 216.469 130.024 216.469C129.782 216.469 129.559 216.533 129.355 216.661C129.153 216.786 128.99 216.96 128.865 217.185C128.743 217.409 128.681 217.669 128.681 217.964V222H127.407ZM139.918 222.145C139.503 222.145 139.128 222.068 138.793 221.915C138.457 221.759 138.192 221.533 137.996 221.237C137.803 220.942 137.706 220.58 137.706 220.151C137.706 219.781 137.777 219.477 137.919 219.239C138.061 219 138.253 218.811 138.494 218.672C138.736 218.533 139.006 218.428 139.304 218.357C139.602 218.286 139.906 218.232 140.216 218.195C140.608 218.149 140.926 218.112 141.17 218.084C141.415 218.053 141.592 218.003 141.703 217.935C141.814 217.866 141.869 217.756 141.869 217.602V217.572C141.869 217.2 141.764 216.912 141.554 216.707C141.347 216.503 141.037 216.401 140.625 216.401C140.196 216.401 139.858 216.496 139.611 216.686C139.366 216.874 139.197 217.082 139.104 217.312L137.906 217.04C138.048 216.642 138.256 216.321 138.528 216.077C138.804 215.83 139.121 215.651 139.479 215.54C139.837 215.426 140.213 215.369 140.608 215.369C140.869 215.369 141.146 215.401 141.439 215.463C141.734 215.523 142.01 215.634 142.266 215.795C142.524 215.957 142.736 216.189 142.901 216.49C143.065 216.788 143.148 217.176 143.148 217.653V222H141.903V221.105H141.852C141.77 221.27 141.646 221.432 141.482 221.591C141.317 221.75 141.105 221.882 140.847 221.987C140.588 222.092 140.278 222.145 139.918 222.145ZM140.195 221.122C140.547 221.122 140.848 221.053 141.098 220.913C141.351 220.774 141.543 220.592 141.673 220.368C141.807 220.141 141.874 219.898 141.874 219.639V218.795C141.828 218.841 141.74 218.884 141.609 218.923C141.482 218.96 141.335 218.993 141.17 219.021C141.006 219.047 140.845 219.071 140.689 219.094C140.533 219.114 140.402 219.131 140.297 219.145C140.05 219.176 139.824 219.229 139.619 219.303C139.418 219.376 139.256 219.483 139.134 219.622C139.014 219.759 138.955 219.94 138.955 220.168C138.955 220.483 139.071 220.722 139.304 220.884C139.537 221.043 139.834 221.122 140.195 221.122Z" fill="white"/>
</g>
<g clip-path="url(#clip6_0_312)">
<g filter="url(#filter10_d_0_312)">
<rect x="302" y="41" width="83" height="24" rx="12" fill="#36A269"/>
</g>
<circle cx="294.5" cy="53.5" r="2.5" fill="#48BB78"/>
<path d="M312.959 57V48.2727H314.276V55.8665H318.23V57H312.959ZM322.451 57.1321C321.806 57.1321 321.251 56.9943 320.785 56.7188C320.322 56.4403 319.964 56.0497 319.711 55.5469C319.461 55.0412 319.336 54.4489 319.336 53.7699C319.336 53.0994 319.461 52.5085 319.711 51.9972C319.964 51.4858 320.316 51.0866 320.768 50.7997C321.222 50.5128 321.754 50.3693 322.362 50.3693C322.731 50.3693 323.089 50.4304 323.435 50.5526C323.782 50.6747 324.093 50.8665 324.369 51.1278C324.644 51.3892 324.862 51.7287 325.021 52.1463C325.18 52.5611 325.259 53.0653 325.259 53.6591V54.1108H320.056V53.1562H324.011C324.011 52.821 323.942 52.5241 323.806 52.2656C323.67 52.0043 323.478 51.7983 323.231 51.6477C322.987 51.4972 322.7 51.4219 322.37 51.4219C322.012 51.4219 321.7 51.5099 321.433 51.6861C321.168 51.8594 320.964 52.0866 320.819 52.3679C320.677 52.6463 320.606 52.9489 320.606 53.2756V54.0213C320.606 54.4588 320.683 54.831 320.836 55.1378C320.992 55.4446 321.21 55.679 321.488 55.8409C321.766 56 322.092 56.0795 322.464 56.0795C322.705 56.0795 322.925 56.0455 323.124 55.9773C323.323 55.9062 323.495 55.8011 323.64 55.6619C323.785 55.5227 323.896 55.3509 323.972 55.1463L325.178 55.3636C325.082 55.7187 324.908 56.0298 324.658 56.2969C324.411 56.5611 324.1 56.767 323.725 56.9148C323.353 57.0597 322.928 57.1321 322.451 57.1321ZM329.43 57.1321C328.816 57.1321 328.281 56.9915 327.824 56.7102C327.366 56.429 327.011 56.0355 326.758 55.5298C326.505 55.0241 326.379 54.4332 326.379 53.7571C326.379 53.0781 326.505 52.4844 326.758 51.9759C327.011 51.4673 327.366 51.0724 327.824 50.7912C328.281 50.5099 328.816 50.3693 329.43 50.3693C330.044 50.3693 330.579 50.5099 331.037 50.7912C331.494 51.0724 331.849 51.4673 332.102 51.9759C332.355 52.4844 332.481 53.0781 332.481 53.7571C332.481 54.4332 332.355 55.0241 332.102 55.5298C331.849 56.0355 331.494 56.429 331.037 56.7102C330.579 56.9915 330.044 57.1321 329.43 57.1321ZM329.434 56.0625C329.832 56.0625 330.162 55.9574 330.423 55.7472C330.684 55.5369 330.877 55.2571 331.002 54.9077C331.13 54.5582 331.194 54.1733 331.194 53.7528C331.194 53.3352 331.13 52.9517 331.002 52.6023C330.877 52.25 330.684 51.9673 330.423 51.7543C330.162 51.5412 329.832 51.4347 329.434 51.4347C329.034 51.4347 328.701 51.5412 328.437 51.7543C328.176 51.9673 327.981 52.25 327.853 52.6023C327.728 52.9517 327.666 53.3352 327.666 53.7528C327.666 54.1733 327.728 54.5582 327.853 54.9077C327.981 55.2571 328.176 55.5369 328.437 55.7472C328.701 55.9574 329.034 56.0625 329.434 56.0625ZM338.89 57L336.47 48.2727H337.855L339.555 55.0312H339.636L341.404 48.2727H342.777L344.545 55.0355H344.626L346.322 48.2727H347.711L345.287 57H343.961L342.125 50.4631H342.056L340.22 57H338.89ZM350.07 57.1449C349.655 57.1449 349.28 57.0682 348.945 56.9148C348.61 56.7585 348.344 56.5327 348.148 56.2372C347.955 55.9418 347.858 55.5795 347.858 55.1506C347.858 54.7812 347.929 54.4773 348.071 54.2386C348.213 54 348.405 53.8111 348.647 53.6719C348.888 53.5327 349.158 53.4276 349.456 53.3565C349.755 53.2855 350.059 53.2315 350.368 53.1946C350.76 53.1491 351.078 53.1122 351.323 53.0838C351.567 53.0526 351.745 53.0028 351.855 52.9347C351.966 52.8665 352.022 52.7557 352.022 52.6023V52.5724C352.022 52.2003 351.917 51.9119 351.706 51.7074C351.499 51.5028 351.189 51.4006 350.777 51.4006C350.348 51.4006 350.01 51.4957 349.763 51.6861C349.519 51.8736 349.35 52.0824 349.256 52.3125L348.059 52.0398C348.201 51.642 348.408 51.321 348.681 51.0767C348.956 50.8295 349.273 50.6506 349.631 50.5398C349.989 50.4261 350.365 50.3693 350.76 50.3693C351.022 50.3693 351.299 50.4006 351.591 50.4631C351.887 50.5227 352.162 50.6335 352.418 50.7955C352.676 50.9574 352.888 51.1889 353.053 51.4901C353.218 51.7884 353.3 52.1761 353.3 52.6534V57H352.056V56.1051H352.005C351.922 56.2699 351.799 56.4318 351.634 56.5909C351.469 56.75 351.257 56.8821 350.999 56.9872C350.74 57.0923 350.431 57.1449 350.07 57.1449ZM350.347 56.1222C350.699 56.1222 351 56.0526 351.25 55.9134C351.503 55.7741 351.695 55.5923 351.826 55.3679C351.959 55.1406 352.026 54.8977 352.026 54.6392V53.7955C351.98 53.8409 351.892 53.8835 351.762 53.9233C351.634 53.9602 351.488 53.9929 351.323 54.0213C351.158 54.0469 350.998 54.071 350.841 54.0938C350.685 54.1136 350.554 54.1307 350.449 54.1449C350.202 54.1761 349.976 54.2287 349.772 54.3026C349.57 54.3764 349.408 54.483 349.286 54.6222C349.167 54.7585 349.107 54.9403 349.107 55.1676C349.107 55.483 349.223 55.7216 349.456 55.8835C349.689 56.0426 349.986 56.1222 350.347 56.1222ZM356.271 48.2727V57H354.997V48.2727H356.271ZM361.041 50.4545V51.4773H357.466V50.4545H361.041ZM358.424 48.8864H359.699V55.0781C359.699 55.3253 359.735 55.5114 359.809 55.6364C359.883 55.7585 359.978 55.8423 360.095 55.8878C360.214 55.9304 360.343 55.9517 360.483 55.9517C360.585 55.9517 360.674 55.9446 360.751 55.9304C360.828 55.9162 360.887 55.9048 360.93 55.8963L361.16 56.9489C361.086 56.9773 360.981 57.0057 360.845 57.0341C360.708 57.0653 360.538 57.0824 360.333 57.0852C359.998 57.0909 359.686 57.0312 359.396 56.9062C359.106 56.7812 358.872 56.5881 358.693 56.3267C358.514 56.0653 358.424 55.7372 358.424 55.3423V48.8864ZM365.201 57.1321C364.556 57.1321 364.001 56.9943 363.535 56.7188C363.072 56.4403 362.714 56.0497 362.461 55.5469C362.211 55.0412 362.086 54.4489 362.086 53.7699C362.086 53.0994 362.211 52.5085 362.461 51.9972C362.714 51.4858 363.066 51.0866 363.518 50.7997C363.972 50.5128 364.504 50.3693 365.112 50.3693C365.481 50.3693 365.839 50.4304 366.185 50.5526C366.532 50.6747 366.843 50.8665 367.119 51.1278C367.394 51.3892 367.612 51.7287 367.771 52.1463C367.93 52.5611 368.009 53.0653 368.009 53.6591V54.1108H362.806V53.1562H366.761C366.761 52.821 366.692 52.5241 366.556 52.2656C366.42 52.0043 366.228 51.7983 365.981 51.6477C365.737 51.4972 365.45 51.4219 365.12 51.4219C364.762 51.4219 364.45 51.5099 364.183 51.6861C363.918 51.8594 363.714 52.0866 363.569 52.3679C363.427 52.6463 363.356 52.9489 363.356 53.2756V54.0213C363.356 54.4588 363.433 54.831 363.586 55.1378C363.742 55.4446 363.96 55.679 364.238 55.8409C364.516 56 364.842 56.0795 365.214 56.0795C365.455 56.0795 365.675 56.0455 365.874 55.9773C366.073 55.9062 366.245 55.8011 366.39 55.6619C366.535 55.5227 366.646 55.3509 366.722 55.1463L367.928 55.3636C367.832 55.7187 367.658 56.0298 367.408 56.2969C367.161 56.5611 366.85 56.767 366.475 56.9148C366.103 57.0597 365.678 57.1321 365.201 57.1321ZM369.423 57V50.4545H370.654V51.4943H370.723C370.842 51.142 371.052 50.8651 371.353 50.6634C371.657 50.4588 372.001 50.3565 372.385 50.3565C372.464 50.3565 372.558 50.3594 372.666 50.3651C372.777 50.3707 372.863 50.3778 372.926 50.3864V51.6051C372.875 51.5909 372.784 51.5753 372.653 51.5582C372.522 51.5384 372.392 51.5284 372.261 51.5284C371.96 51.5284 371.691 51.5923 371.456 51.7202C371.223 51.8452 371.038 52.0199 370.902 52.2443C370.765 52.4659 370.697 52.7187 370.697 53.0028V57H369.423Z" fill="white"/>
</g>
<defs>
<filter id="filter0_d_0_312" x="47" y="17" width="208" height="56" filterUnits="userSpaceOnUse" color-interpolation-filters="sRGB">
<feFlood flood-opacity="0" result="BackgroundImageFix"/>
<feColorMatrix in="SourceAlpha" type="matrix" values="0 0 0 0 0 0 0 0 0 0 0 0 0 0 0 0 0 0 127 0" result="hardAlpha"/>
<feOffset dy="1"/>
<feGaussianBlur stdDeviation="2"/>
<feColorMatrix type="matrix" values="0 0 0 0 0.0823529 0 0 0 0 0.0901961 0 0 0 0 0.0980392 0 0 0 0.24 0"/>
<feBlend mode="normal" in2="BackgroundImageFix" result="effect1_dropShadow_0_312"/>
<feBlend mode="normal" in="SourceGraphic" in2="effect1_dropShadow_0_312" result="shape"/>
</filter>
<filter id="filter1_d_0_312" x="65" y="28" width="32" height="32" filterUnits="userSpaceOnUse" color-interpolation-filters="sRGB">
<feFlood flood-opacity="0" result="BackgroundImageFix"/>
<feColorMatrix in="SourceAlpha" type="matrix" values="0 0 0 0 0 0 0 0 0 0 0 0 0 0 0 0 0 0 127 0" result="hardAlpha"/>
<feOffset/>
<feGaussianBlur stdDeviation="1"/>
<feColorMatrix type="matrix" values="0 0 0 0 0.0823529 0 0 0 0 0.0901961 0 0 0 0 0.0980392 0 0 0 0.04 0"/>
<feBlend mode="normal" in2="BackgroundImageFix" result="effect1_dropShadow_0_312"/>
<feBlend mode="normal" in="SourceGraphic" in2="effect1_dropShadow_0_312" result="shape"/>
</filter>
<filter id="filter2_d_0_312" x="115" y="81" width="156" height="56" filterUnits="userSpaceOnUse" color-interpolation-filters="sRGB">
<feFlood flood-opacity="0" result="BackgroundImageFix"/>
<feColorMatrix in="SourceAlpha" type="matrix" values="0 0 0 0 0 0 0 0 0 0 0 0 0 0 0 0 0 0 127 0" result="hardAlpha"/>
<feOffset dy="1"/>
<feGaussianBlur stdDeviation="2"/>
<feColorMatrix type="matrix" values="0 0 0 0 0.0823529 0 0 0 0 0.0901961 0 0 0 0 0.0980392 0 0 0 0.24 0"/>
<feBlend mode="normal" in2="BackgroundImageFix" result="effect1_dropShadow_0_312"/>
<feBlend mode="normal" in="SourceGraphic" in2="effect1_dropShadow_0_312" result="shape"/>
</filter>
<filter id="filter3_d_0_312" x="133" y="92" width="32" height="32" filterUnits="userSpaceOnUse" color-interpolation-filters="sRGB">
<feFlood flood-opacity="0" result="BackgroundImageFix"/>
<feColorMatrix in="SourceAlpha" type="matrix" values="0 0 0 0 0 0 0 0 0 0 0 0 0 0 0 0 0 0 127 0" result="hardAlpha"/>
<feOffset/>
<feGaussianBlur stdDeviation="1"/>
<feColorMatrix type="matrix" values="0 0 0 0 0.0823529 0 0 0 0 0.0901961 0 0 0 0 0.0980392 0 0 0 0.04 0"/>
<feBlend mode="normal" in2="BackgroundImageFix" result="effect1_dropShadow_0_312"/>
<feBlend mode="normal" in="SourceGraphic" in2="effect1_dropShadow_0_312" result="shape"/>
</filter>
<filter id="filter4_d_0_312" x="297" y="81" width="156" height="56" filterUnits="userSpaceOnUse" color-interpolation-filters="sRGB">
<feFlood flood-opacity="0" result="BackgroundImageFix"/>
<feColorMatrix in="SourceAlpha" type="matrix" values="0 0 0 0 0 0 0 0 0 0 0 0 0 0 0 0 0 0 127 0" result="hardAlpha"/>
<feOffset dy="1"/>
<feGaussianBlur stdDeviation="2"/>
<feColorMatrix type="matrix" values="0 0 0 0 0.0823529 0 0 0 0 0.0901961 0 0 0 0 0.0980392 0 0 0 0.24 0"/>
<feBlend mode="normal" in2="BackgroundImageFix" result="effect1_dropShadow_0_312"/>
<feBlend mode="normal" in="SourceGraphic" in2="effect1_dropShadow_0_312" result="shape"/>
</filter>
<filter id="filter5_d_0_312" x="315" y="92" width="32" height="32" filterUnits="userSpaceOnUse" color-interpolation-filters="sRGB">
<feFlood flood-opacity="0" result="BackgroundImageFix"/>
<feColorMatrix in="SourceAlpha" type="matrix" values="0 0 0 0 0 0 0 0 0 0 0 0 0 0 0 0 0 0 127 0" result="hardAlpha"/>
<feOffset/>
<feGaussianBlur stdDeviation="1"/>
<feColorMatrix type="matrix" values="0 0 0 0 0.0823529 0 0 0 0 0.0901961 0 0 0 0 0.0980392 0 0 0 0.04 0"/>
<feBlend mode="normal" in2="BackgroundImageFix" result="effect1_dropShadow_0_312"/>
<feBlend mode="normal" in="SourceGraphic" in2="effect1_dropShadow_0_312" result="shape"/>
</filter>
<filter id="filter6_d_0_312" x="203" y="145" width="208" height="56" filterUnits="userSpaceOnUse" color-interpolation-filters="sRGB">
<feFlood flood-opacity="0" result="BackgroundImageFix"/>
<feColorMatrix in="SourceAlpha" type="matrix" values="0 0 0 0 0 0 0 0 0 0 0 0 0 0 0 0 0 0 127 0" result="hardAlpha"/>
<feOffset dy="1"/>
<feGaussianBlur stdDeviation="2"/>
<feColorMatrix type="matrix" values="0 0 0 0 0.0823529 0 0 0 0 0.0901961 0 0 0 0 0.0980392 0 0 0 0.24 0"/>
<feBlend mode="normal" in2="BackgroundImageFix" result="effect1_dropShadow_0_312"/>
<feBlend mode="normal" in="SourceGraphic" in2="effect1_dropShadow_0_312" result="shape"/>
</filter>
<filter id="filter7_d_0_312" x="221" y="156" width="32" height="32" filterUnits="userSpaceOnUse" color-interpolation-filters="sRGB">
<feFlood flood-opacity="0" result="BackgroundImageFix"/>
<feColorMatrix in="SourceAlpha" type="matrix" values="0 0 0 0 0 0 0 0 0 0 0 0 0 0 0 0 0 0 127 0" result="hardAlpha"/>
<feOffset/>
<feGaussianBlur stdDeviation="1"/>
<feColorMatrix type="matrix" values="0 0 0 0 0.0823529 0 0 0 0 0.0901961 0 0 0 0 0.0980392 0 0 0 0.04 0"/>
<feBlend mode="normal" in2="BackgroundImageFix" result="effect1_dropShadow_0_312"/>
<feBlend mode="normal" in="SourceGraphic" in2="effect1_dropShadow_0_312" result="shape"/>
</filter>
<filter id="filter8_d_0_312" x="271" y="209" width="168" height="56" filterUnits="userSpaceOnUse" color-interpolation-filters="sRGB">
<feFlood flood-opacity="0" result="BackgroundImageFix"/>
<feColorMatrix in="SourceAlpha" type="matrix" values="0 0 0 0 0 0 0 0 0 0 0 0 0 0 0 0 0 0 127 0" result="hardAlpha"/>
<feOffset dy="1"/>
<feGaussianBlur stdDeviation="2"/>
<feColorMatrix type="matrix" values="0 0 0 0 0.0823529 0 0 0 0 0.0901961 0 0 0 0 0.0980392 0 0 0 0.24 0"/>
<feBlend mode="normal" in2="BackgroundImageFix" result="effect1_dropShadow_0_312"/>
<feBlend mode="normal" in="SourceGraphic" in2="effect1_dropShadow_0_312" result="shape"/>
</filter>
<filter id="filter9_d_0_312" x="289" y="220" width="32" height="32" filterUnits="userSpaceOnUse" color-interpolation-filters="sRGB">
<feFlood flood-opacity="0" result="BackgroundImageFix"/>
<feColorMatrix in="SourceAlpha" type="matrix" values="0 0 0 0 0 0 0 0 0 0 0 0 0 0 0 0 0 0 127 0" result="hardAlpha"/>
<feOffset/>
<feGaussianBlur stdDeviation="1"/>
<feColorMatrix type="matrix" values="0 0 0 0 0.0823529 0 0 0 0 0.0901961 0 0 0 0 0.0980392 0 0 0 0.04 0"/>
<feBlend mode="normal" in2="BackgroundImageFix" result="effect1_dropShadow_0_312"/>
<feBlend mode="normal" in="SourceGraphic" in2="effect1_dropShadow_0_312" result="shape"/>
</filter>
<filter id="filter10_d_0_312" x="298" y="37" width="91" height="32" filterUnits="userSpaceOnUse" color-interpolation-filters="sRGB">
<feFlood flood-opacity="0" result="BackgroundImageFix"/>
<feColorMatrix in="SourceAlpha" type="matrix" values="0 0 0 0 0 0 0 0 0 0 0 0 0 0 0 0 0 0 127 0" result="hardAlpha"/>
<feOffset/>
<feGaussianBlur stdDeviation="2"/>
<feColorMatrix type="matrix" values="0 0 0 0 0.0823529 0 0 0 0 0.0901961 0 0 0 0 0.0980392 0 0 0 0.04 0"/>
<feBlend mode="normal" in2="BackgroundImageFix" result="effect1_dropShadow_0_312"/>
<feBlend mode="normal" in="SourceGraphic" in2="effect1_dropShadow_0_312" result="shape"/>
</filter>
<linearGradient id="paint0_linear_0_312" x1="94.65" y1="57.9446" x2="94.65" y2="30.6446" gradientUnits="userSpaceOnUse">
<stop stop-color="#55595F" stop-opacity="0.36"/>
<stop offset="1" stop-color="#55595F" stop-opacity="0.36"/>
</linearGradient>
<linearGradient id="paint1_linear_0_312" x1="162.65" y1="121.945" x2="162.65" y2="94.6446" gradientUnits="userSpaceOnUse">
<stop stop-color="#55595F" stop-opacity="0.36"/>
<stop offset="1" stop-color="#55595F" stop-opacity="0.36"/>
</linearGradient>
<linearGradient id="paint2_linear_0_312" x1="344.65" y1="121.945" x2="344.65" y2="94.6446" gradientUnits="userSpaceOnUse">
<stop stop-color="#55595F" stop-opacity="0.36"/>
<stop offset="1" stop-color="#55595F" stop-opacity="0.36"/>
</linearGradient>
<linearGradient id="paint3_linear_0_312" x1="250.65" y1="185.945" x2="250.65" y2="158.645" gradientUnits="userSpaceOnUse">
<stop stop-color="#55595F" stop-opacity="0.36"/>
<stop offset="1" stop-color="#55595F" stop-opacity="0.36"/>
</linearGradient>
<linearGradient id="paint4_linear_0_312" x1="318.65" y1="249.945" x2="318.65" y2="222.645" gradientUnits="userSpaceOnUse">
<stop stop-color="#55595F" stop-opacity="0.36"/>
<stop offset="1" stop-color="#55595F" stop-opacity="0.36"/>
</linearGradient>
<clipPath id="clip0_0_312">
<rect width="204" height="48" fill="white" transform="translate(47 20)"/>
</clipPath>
<clipPath id="clip1_0_312">
<rect width="156" height="48" fill="white" transform="translate(115 84)"/>
</clipPath>
<clipPath id="clip2_0_312">
<rect width="157" height="48" fill="white" transform="translate(297 84)"/>
</clipPath>
<clipPath id="clip3_0_312">
<rect width="209" height="48" fill="white" transform="translate(203 148)"/>
</clipPath>
<clipPath id="clip4_0_312">
<rect width="164" height="48" fill="white" transform="translate(271 212)"/>
</clipPath>
<clipPath id="clip5_0_312">
<rect width="118" height="24" fill="white" transform="translate(37 206)"/>
</clipPath>
<clipPath id="clip6_0_312">
<rect width="93" height="24" fill="white" transform="translate(292 41)"/>
</clipPath>
</defs>
</svg>
